<svg xmlns="http://www.w3.org/2000/svg" viewBox="0 0 1500 150"><defs><style>.cls-1{fill:#1e204f;}.cls-2{fill:#fff;}.cls-3{font-size:144px;fill:none;stroke:#fff;stroke-miterlimit:10;stroke-width:2px;font-family:ArtifaktElement-Regular, Artifakt Element;}.cls-4{letter-spacing:-0.01em;}.cls-5{letter-spacing:0em;}</style></defs><g id="Layer_1" data-name="Layer 1"><rect class="cls-1" width="1502.84" height="150"/></g><g id="Layer_2" data-name="Layer 2"><path class="cls-2" d="M1014.94,131.66c1.22.11.78-1.15,1-1.37C1013.86,130.56,1015,132,1014.94,131.66Z"/><polygon class="cls-2" points="994.83 134.52 995.19 134.01 992.22 135.27 994.83 134.52"/><path class="cls-2" d="M976,134.47c1.78,2.15,6.82-.33,10.17.44l.55.49,1.52-1.72C984.18,134,978.89,135.07,976,134.47Z"/><path class="cls-2" d="M966,129.81c.62.83-2.17.71,2.34.27-.23-.1-.29-.15-.43-.22A17.7,17.7,0,0,1,966,129.81Z"/><path class="cls-2" d="M967.92,129.86c2-.05-1.29-.7,0,0Z"/><path class="cls-2" d="M958.78,130.32l2.61-.74c-.54-.49-2.86-.61-2-1C956.71,129,957.26,129.5,958.78,130.32Z"/><path class="cls-2" d="M956.3,131.87l1.35-.31C957.41,131.35,957.06,131.28,956.3,131.87Z"/><path class="cls-2" d="M960.52,130.9l-2.87.66c.38.35.41,1,1.32-.24C958.73,132,959.3,131.35,960.52,130.9Z"/><path class="cls-2" d="M962.14,131.23c1.46.47,3.35.77.73,1.51C967.86,132.46,967.13,131,962.14,131.23Z"/><path class="cls-2" d="M975.06,136.68l2,.63,1.7-.71C977.86,137,974.94,136,975.06,136.68Z"/><path class="cls-2" d="M942.53,129.12c-.16.46.87,1.22,1.06,1.81l1.93-.52C944.53,130.1,942.66,129.8,942.53,129.12Z"/><path class="cls-2" d="M943.59,130.93l-2.88.76C943.28,131.8,943.75,131.43,943.59,130.93Z"/><polygon class="cls-2" points="955.82 134.24 960.57 132.62 954.91 134.26 955.82 134.24"/><polygon class="cls-2" points="931.52 129.01 933.16 127.96 930.24 129.54 931.52 129.01"/><path class="cls-2" d="M924.22,129.15c1.21-.86-1.65-1.49-.37-2a15.79,15.79,0,0,0-5.22,1.54A10.26,10.26,0,0,1,924.22,129.15Z"/><path class="cls-2" d="M916.07,129.64a17.56,17.56,0,0,0,2.56-1A9.14,9.14,0,0,0,916.07,129.64Z"/><path class="cls-2" d="M935.8,131.44a3.17,3.17,0,0,0-2.27-1.31l1.13,1.29Z"/><path class="cls-2" d="M934.7,131.46l0,0-2.45-.09Z"/><path class="cls-2" d="M936.08,131.45h-.28C935.9,131.57,936,131.61,936.08,131.45Z"/><path class="cls-2" d="M948.27,133c-1.7.71-5.24,1.46-1.82,2.57C947.67,134.74,945.71,134.11,948.27,133Z"/><path class="cls-2" d="M937.48,133.06l3.06.31c-.06-.34-.61-.84.24-1.19Z"/><polygon class="cls-2" points="935.98 133.46 937.48 133.06 936.35 132.94 935.98 133.46"/><path class="cls-2" d="M921.3,130.88a13.27,13.27,0,0,1-4.41.66,38.07,38.07,0,0,0,5.29.42C922.42,131.56,923.18,130.84,921.3,130.88Z"/><path class="cls-2" d="M927.81,131.27l-.29.08C927.7,131.46,927.84,131.49,927.81,131.27Z"/><path class="cls-2" d="M900.8,131.41l.25.24c0-.08,0-.15.07-.22Z"/><path class="cls-2" d="M922.47,132.2a3.93,3.93,0,0,0,2.86-.44,26,26,0,0,1-3.15.2C922.07,132.14,922,132.26,922.47,132.2Z"/><path class="cls-2" d="M911.57,130.2a19.74,19.74,0,0,0,2.28.73C913.18,130.52,911.82,129.87,911.57,130.2Z"/><path class="cls-2" d="M927.08,131l.19-.06C926.84,130.66,926.9,130.79,927.08,131Z"/><path class="cls-2" d="M927.08,131a8,8,0,0,0-1.75.77,14.25,14.25,0,0,0,2.19-.41A2,2,0,0,1,927.08,131Z"/><path class="cls-2" d="M895.86,139.61c.24-1.19,3.71-2.26,6.69-1,3-.87,1.06-4.79-1.5-7-.09.52-.09,1-3.13,1.67,1.06.66,6.71,1.57,4.15,2.63-4,.58-3.29-.45-5.23-1.09,1.64,1.49-5.12,2.12-4.27,4.3l3.53-.74C896.16,138.76,894.88,139.29,895.86,139.61Z"/><path class="cls-2" d="M906.82,131.81l1.25-.14a13.47,13.47,0,0,1-4.3-1.64c-2.07.56-2.51,1-2.65,1.4l6.13.21Z"/><path class="cls-2" d="M913.66,131.71c-1,1.28-4,1.81-2.15,3.22,3.65-.06,2.57-1.06,4.75-1.6-5.9.28,1.7-.71-2.55-1.47a24.09,24.09,0,0,1,3.18-.32c-1.06-.17-2.08-.37-3-.61l.13.08h0v0c.26.17.34.27,0,.17,0,0-.09,0-.12,0a1.29,1.29,0,0,1-.27.48c-1.71-.28-.27-.34.27-.48,0-.07.07-.13.07-.2h0l-5.91.66A30.22,30.22,0,0,0,913.66,131.71Z"/><path class="cls-2" d="M943.28,138.37a.32.32,0,0,1-.19-.3C942.71,138.23,942.56,138.34,943.28,138.37Z"/><path class="cls-2" d="M940.85,137.58A3,3,0,0,1,943,137c1.21.39,0,.62.05,1,.85-.34,2.95-.91.32-1.55l-.42.17c-2.38-.45-5.43-2.08-5-2.26A9,9,0,0,0,940.85,137.58Z"/><path class="cls-2" d="M927.08,135l-4.92.61,2.5,1.13-.13-.67C927.33,136.33,926.73,135.5,927.08,135Z"/><polygon class="cls-2" points="900.24 130.77 900.9 129.41 898.04 131.31 900.24 130.77"/><polygon class="cls-2" points="893.84 130.88 894.09 129.7 892.4 130.4 893.84 130.88"/><path class="cls-2" d="M532.79,142.33l-1.45.34A8,8,0,0,0,532.79,142.33Z"/><path class="cls-2" d="M543.25,142.46l.26-.58C543,142.2,542.83,142.44,543.25,142.46Z"/><path class="cls-2" d="M736.76,129.48c-2.09-1.13-4.43-2.88-4.19-1.54l.64,1.31A7.8,7.8,0,0,1,736.76,129.48Z"/><path class="cls-2" d="M629.09,136.17l.61.4,1.44-1.23Z"/><path class="cls-2" d="M627.56,141.55l-2.77-.87A13,13,0,0,0,627.56,141.55Z"/><path class="cls-2" d="M458,142.06a4.64,4.64,0,0,1-.89-1C453.69,144.53,456.79,142.37,458,142.06Z"/><path class="cls-2" d="M828.34,130.77a20.93,20.93,0,0,0-4.53-.83C826,130.71,827.75,131.85,828.34,130.77Z"/><path class="cls-2" d="M537,128.54c-.88.23-1.26.49-1.24.78C536.64,129.1,537.15,128.86,537,128.54Z"/><path class="cls-2" d="M818.56,129.9c.32.13.63.2,1,.31a19.41,19.41,0,0,1,4.29-.27A6.56,6.56,0,0,0,818.56,129.9Z"/><path class="cls-2" d="M548.56,24.46a3.68,3.68,0,0,1-.47-.15C548.05,24.48,548.25,24.49,548.56,24.46Z"/><path class="cls-2" d="M488.16,11.19c.6-.08,1.57-.08,2.49-.09A8.13,8.13,0,0,0,488.16,11.19Z"/><path class="cls-2" d="M868.12,130.1c1.36-.08.21-.15,0,0Z"/><path class="cls-2" d="M874.67,135.3a.85.85,0,0,0-.55.63A1.12,1.12,0,0,1,874.67,135.3Z"/><path class="cls-2" d="M805,137.86h-.12C805.25,138.11,805.18,138.06,805,137.86Z"/><path class="cls-2" d="M870.15,130.71a10.49,10.49,0,0,0-1.73-.41A11,11,0,0,0,870.15,130.71Z"/><path class="cls-2" d="M869.88,130.09l1.19.13C871.24,130,871.09,129.87,869.88,130.09Z"/><path class="cls-2" d="M866.23,130.15a14,14,0,0,1,2.19.15c-.26-.09-.37-.16-.3-.2Z"/><path class="cls-2" d="M542.68,62.92a2.71,2.71,0,0,1,.3-.13C543.54,61.44,543.18,61.93,542.68,62.92Z"/><path class="cls-2" d="M701.31,142.62a.76.76,0,0,0,.16-.06l-.2-.05Z"/><path class="cls-2" d="M696.43,143.54a4.8,4.8,0,0,1,4.84-1l-1.58-3.76Z"/><path class="cls-2" d="M507.73,142.64l3.42,1.18c-4.13,1.91-7.12,1.24-3.91,2.89.49-4.07,13.29-.38,13.77-4.45l2.26.87c-.65,0-.75.19-1.39.15,4.38,2,3.26-2.94,8.91-2.34,2,.32,3.34.91,2,1.39l4.39-1c1.27.09,1,.79-.31.71l6.69-.29,0,.12a29.9,29.9,0,0,1,4.19-2c1.69.59-.86.42-.43.93l3.72-1c1.5,1.06-1.58,2.07-4.14,1.9,3.44,4.09,3.08-1,10.54,1.41l-3.5.5c2.24,2.32,5,1.5,8.92,3-.93-.76-7.9-3.67-3.87-4.67a7.31,7.31,0,0,0,4.8-.34c0,1.45,2.13,1.11,4.78,1l-.19,1.92c2.87-.53,2.65-1.51,4.34-2.36,3.19.21,3.85,1.7,4.59,3,5.11.34-3.52-2.41,2.54-2.73,4.25.77,7.24,0,12.34-1.11,3,.69-.53,1.17.54,1.73l2.65-1.51c.64,0,.43.51.32.74,2.23-.57.2-1.91,3.7-2.41,1-2.11,7.16,3.15,11.5.79,1.07.55-.52,1.17-.2,1.91,6-1.52,5.1-1.1,10-3.17l4.15,1.29c-3-1.47.87-3.14,4.3-4.51-1.08-.7-2-1.32-2.61-1.62l5.46-1c.65.32.1,1-.8,1.77.37-.15.72-.31,1-.45,1.94.73.92,1.82-.48,2.88-.66-.38-1.32-.79-2-1.2-1.35,1.16-2.63,2.44-2.35,3.56a5.32,5.32,0,0,1,1.79-.5c-.36.31-.59.59-.42.79s.75-.22,1.65-.7l1.22,2.15.31-.85,7.11,1.41c5.13-2.11,9.6-5.24,17.7-6-2,1.55-.45,2.56-.58,4.41-2.19-2-6.28.78-10.47.34,2.18.23,1.69,1.11,1.13,1.41l7.51-1.72c-.19,1.52,1.58,1.16,3.53,1.81-1.45-3,5.59-1.95,8.65-2.84.18,1-.56,2-4.28,1.75,4.08,2.3,5.34-3.47,9.34-1.51-.9,0-1.39-.15-1.76.36,2.13-.88,7.31-.11,6.08.75l-.91,0c6,.41,18.34.21,19.27-2.34a13.89,13.89,0,0,1-1.19,3.58l10.84-8.47c-1,2.18,2.61,7.44-2.4,8.62a11.94,11.94,0,0,0,6.23,0c-1-.32-2.4-3.19-1.06-3.38,3.64,2.48,2.53,1.33,7,3.46-1.46-.49.21-3.91,2.52-3.77-.36.51.16,3.39-.69,3.74l5.8-3.31c-1.44.59-.28,2.85,1,3.82-.59-.67,5,.12,6.53-.2l-2.44-.81c6.51.58,6.49-4.68,13-4.43-.79.69-2,4.27,1.3,4.73,1.53-1.72,6.76-8.24,12.49-9.51l1.09,1,4.4-1.08a86.51,86.51,0,0,1-14.7,10c2.43.81.67,1.17,4.32,1.12,1.28.94-2,1.39-3.08,1.43l8.5.69c-.36-2,6.52-2,6.21-3.64l-9.25,2c-.36-2,5.4-5.67,11.41-5.25,1.53.82-1.18,3.58-1.06,4.26.79-.69,5.73-1.27,6.28-.77l-2.57,1.05c3.35.79,5.5-2.62,9.51-.65,1.39.14,4.13,2.64,4.38,1.45-2.25-2.32-2.61-9.45-1.08-11.16.48.16,7.27,2.28,8.85,3.43,2.27,1.83-3.48,4.26-1.55,5.83.09-.55,1.36-1.21,1.89-1.43,1.46.49-.62,1.7,2.56,1.49.55-2,6.45.24,1.51-1.71,3.11-.56,3.3.45,6.94.4-1.14-1.34,3.32-4.47,6.44-5-.19.52.5,1.2.84,1.52,6.36.25,9.76,1.21,15.7,1.29.54.5,3.4,1.13,2.17,2a7.49,7.49,0,0,1,3.48-1.07c3.52,1.81-4.09.24-1.41,2.39.25-1.19,4.75-1.59,7.37-2.31-.79-1.84-6-.41-8.64.31,0-2.54,4.58-5.14,10.8-6.25,4.93-.59,2.12,1.65,3,1.3,9.25.53,7.92-4.34,15.59-2.44,3,1.64.11,3.21.78,4.38-4,.57-6.16-1.09-8.88-1l3.34.8a9.93,9.93,0,0,1-5.42.42c2.54,1.47,15.64.43,22.77,1.83,1.27-.53,3.47-1.07,2.44-1.73l-2.26.2c-2.07-1.31,4.27-1.76,1.41-2.39,3-.89,6.45-2.3,10.71-1.52l.79,1.84c-.09-.53-2.78-1.12-4-.57,1.79-.8,6.53,2.55,8.5.16l-3-1.3c3.06-.9,6.83-2.82,10.61-2.21-1.71-1.83-.87.2-3.54-2,2.3,2.67-9.68-.19-6,2.62-2.73-2.49-4.76-1.09-8.35-3.22.11.61,1.27,1.17-1.9.84a3.39,3.39,0,0,1-.7.53l-.22,0,.18.07c-.14.09-.15.11.06,0a3.65,3.65,0,0,1,1.61.94c-1.59,1.38-6.63,1.29-8.35,2-1.88-.31.8-.69-.23-1.35l-2.56,1.06c-.24-1.35-5-2.28-.54-3l-4-.1a15,15,0,0,0-7.57-.56c-1.89-.31-4.78,1.45-3.13.41l-6.27.77-.05-.34c-6.18-.23-12.75,2.11-19.79-.39a25.11,25.11,0,0,1-7.72.3l-.66-1.18c-2.68.38-8-1.24-9.18,0-2.85-3.17-13-.82-17.65-1.42l-.19,1.52a57.62,57.62,0,0,0-10.36.84l.23,1.35c-3.47,1.07-8.89-1.05-14.37-1,.38-.51,1.77-.36,2.75,0-6.51-3.11-13.83,2.07-19.74-.21a5.35,5.35,0,0,1-3.58-.05,1.35,1.35,0,0,0,.37-.07,5.54,5.54,0,0,0-.61,0c-.65-.24-1.32-.52-2-.74a8.32,8.32,0,0,0,1.72.74,28,28,0,0,0-4.57.48l-.7-1.45c-.14,0-.25,0-.4,0-1.65-.55-1.34.67-.47,1.76a10.27,10.27,0,0,0-2.25.85c-1.32-2.35-4.45.74-6.27-1.77-1.16,1.2-8.53.82-9.46,3.37-.06-.34-.55-.5.36-.51-1.88-.31-3.77-.62-5.47.08l-.79-1.85-4.15,2.43c-2.49-1.14-3.52-1.8-1-3.19-6,2.11-4.89.77-10,2.87l.26-1.19c-1.83,0-4.76,1.59-5.86.6-4.06-2.3-20.22-.52-30.69-2.72,2,3.52-4.86-1.61-5.3,1.1-.61-.84-2.06-1.32-.36-2-5.36.76-8-1.39-11.75.86-.6-.84,1.16-1.2.62-1.7-.43.18-1.71.7-2.26.21s.79-.69,1.64-1c-5.47.08-6.05,2.63-6.47,5-2.76-1.16-4.15-1-6.16.54-1-.79-2.56-1.62.84-1.87-1.91-.13-11.67-1.25-11.88.66-.6-.49-2.67-.16-3.18.06a88.17,88.17,0,0,0-8.88-.19L605,132c-1.69,2.3-3.51.48-6.91.74l.1-.24c-7.78-1.73-3.37.77-11-1.19l.41,1.45c-.74,3.09-6.79-1.88-11.26-.73l1.6.84c-2.44,1-6.78-4.26-9.22-4.67-.53-.27.84-.42,1.59-.62-6.4-1.86-.84,1.88-5.62,2.29-.87-1,1.15-2.58-2.06-2.78-1.6-.83-9.34,3.25-13.71,1.27,1,.79,1.92,1.58-.3,2.16-3.4.26-9.18-3-12.26-.56-.43-.22-.59-.42-.61-.62-2.6.63-8.44,1-10,2.37-2.39-5-16.16,2.37-16.09-2.21l-4,.11h-.5l-.29,0-.53,0-1.08.06.25-.47a6,6,0,0,0-3.1.43c-1,.37-2,.92-3.16,1.47-.44-.31.59-.74.87-1a7.15,7.15,0,0,0-3.68-.42c-1.43.22-3.39.84-8.16,2l3-1.49a2.5,2.5,0,0,1-.84.14c.56-.59,3-2.23,4.86-3.54a21.41,21.41,0,0,0,2.34-1.87,3,3,0,0,0,1-1.73c.2,0,.54.11.64.3.07-.69,1-1.57,2-2.26.5-.34,1-.64,1.5-.9l.36-.18a2,2,0,0,0,.44-.28l1.32-1c3.41-2.64,6.05-5.14,5.18-8.11l2.88-4.8c-5.24,4.7-.94-2.4-3.61-1,1.71-2.19,6.18-3.93,4-1.32l-.56.19c1.13,2.87,6.85-5.52,8.08-4,9.61-10,20.17-18.49,29.3-27.7l-2.61-.46,3.24-3.15c1.19-.49,2.34.06,0,2.3,2.07-.34,3-4.6,2.74-5,5.05-3.91.12,3.55,1.51,2.2l1.71-2-.59.25c.84-2.16.29-2.95,3.07-5.66,2-1.46,1.84,0,2.58-.6.11.12.39-.07,1.07-1l4.1-4-2.83.43c1.14-2.41,3.79-3.78.55-3.26,2.43-.33,6.32-4,9.89-7.65l5.09-5.36A34,34,0,0,1,582,35.13a30.8,30.8,0,0,1,3.89-5.62c1.54-1.79,3.37-3.64,5.5-5.76-1.63,1.18-5.21,2.11-1.88-1a9.37,9.37,0,0,0,4.13-1.4,28,28,0,0,0,4-3.11c1.39-1.23,2.85-2.6,4.58-4,.86-.72,1.8-1.46,2.83-2.22.25-.19.56-.4.77-.57a.36.36,0,0,1-.06-.2.76.76,0,0,1,.15-.48c-.14,1-4.41,1.06-8.35,1.27a39.36,39.36,0,0,0-5.24.5c-1.32.28-2,.69-1.77,1.38-1.71-.17-1.22-.55-.44-1s1.85-1,.8-1.45a76.4,76.4,0,0,1-9.18.48c-2.91,0-5.82-.19-8.93-.39L568,11.19l-2.5-.14-1.75-.13a57,57,0,0,0-6.8-.08c-.14.52,1.39,1.33-.58,2.11l-4.82-2.65c-1.81.26-1.67,3-5,1.21.47.44,1.16,1.11-.05,1.28-17.92-2.61-36.63,2-54.82-2.85,2.46,1,.82,1.12-1.06,1.16,1.22.24,0,1.3.2,2l-7.61-2c-1.4,2-8.17.12-9,2l2.41-.33c-3.21,2.23,4.48,5,4,7.86,3.6-2.54,9.47,3.79,15.37.16,1.31.59-1.11.92-.41,1.59,1.49-1.23,3.3-1.48,6.64-.92l-.38.3c9.4-.28,13.43.95,24,1.78l-.78-1.42a10.56,10.56,0,0,1,3.81,1c2.61-2.15-6.37-.14-4-2.51,3,2.9,16,.08,18,3.37,3.48,0-1-1.64,2.46-1.62l.93.9.88-1.15c2.29.2,3.44,1.31,3.52,2.06a11.19,11.19,0,0,0-2.17.27c3,1.06,8.37-.33,9.38,0l-3.35-.56c2.38-.2,4.9-.28,7.47-.31l5.22,0a34.43,34.43,0,0,0,3.66-.21,47.64,47.64,0,0,0,4.83-.87c.26-.22.5-.44.73-.67a18.48,18.48,0,0,1,3.18-.41,1.45,1.45,0,0,1,1,.25,2.57,2.57,0,0,0,.24.21l.07.05s.06,0,0,0l-.12.1-.48.38a8.72,8.72,0,0,0-1.64,1.78h-.21c.77.17.42,1-.65,2-.25-.31-1.33.26-2.28.69s-1.82.74-2.13.44c0,.52-.11.93-.1,1.22a.71.71,0,0,0,.22.58,6.36,6.36,0,0,1,.6.51,2.31,2.31,0,0,1,.53,1.51c-.61.1-1.2.17-1.75.21a3.46,3.46,0,0,1,.15,1.54,3,3,0,0,1-.4,1,6.54,6.54,0,0,1-.43.65c-.18.26-.35.49-.68.89a1.61,1.61,0,0,0,.25-.77.37.37,0,0,0-.15-.33,1.51,1.51,0,0,0-.81-.14c-.36,0-.72.08-.9-.12a.67.67,0,0,1-.1-.49c0-.11.07-.28.08-.4s0-.24,0-.38a2.1,2.1,0,0,0-.47.19l-.62.4c-.4.28-.77.56-1.12.84A15.72,15.72,0,0,0,566,36a25.84,25.84,0,0,0-2.47,3.38c-1.36,2.09-2.45,3.7-5,3.79-.37,4.81,6.08-3.84,5.11-1.89,1.93-.55-.47,3.81-2.45,5.42-1.85,1.8-5.89.41-10.36,5.11.46-.45.32-.64.78-1.1-2.25,1.2-2.55,4.16-5.54,5.41.17,2.5-2.77,2.7-1.41,4.7l3.76-4.65c-1.9,2.85-2.12,7.06-7,10.11a10.19,10.19,0,0,1,1.2-3.33c-1.63.67-1.85,2.56-3.54,3.27-1.37-2,4.68-5.55,5.9-9.4-1.93.55-3.54,6.1-4.11,3,.52,4.16-4.76,4.3-6,9.19l-.82-1.21a10.23,10.23,0,0,1-1.77,3l.3-2.95c-1.36,3.65-5.78,3.95-7.55,7,5-5.13,2.35.06,5.2-1.38-4.8,7.64-6.2,1-12.62,8.54.79-1.09,4.12-3,3.13-1a17.47,17.47,0,0,1-5,2.82c-4.37,4.87,1.75.31.43,2.91-2.8.37-1.75,2.78-3.37,5.21l-1-1c-5.89,4.66.76,3.53-4.75,7.52l.56-3.43-2.09,2.85-.66-1.67c-1.81,3.56-2.86,4.19-5.81,6.51,1.33.1,1.52,2.19-.77,4.57-2.19,1-.09-1.86-3.23,1.61.1-1.39.1-3,2.48-3.52-.19-.48.09-1.38-.09-1.86-2.41,1-4.44,4.17-5.63,5.38a6.06,6.06,0,0,1,1.53-1.06l-.84,1.55-.42.78-.21.39c-.06.13-.24.36-.35.53-1,1.5-1.95,2.92-2.83,4.28-1.65.88-1.2-.19-.62-1.38-1.43,1.66-1.82,3-3.84,5.2-.77-.89-2.38-1,.68-4.85q-3.45,4.38-6.38,8.25a36.09,36.09,0,0,0-3.43,2.09c-1.33.85-2.51,1.56-2.29,1a38.6,38.6,0,0,0-6.75,7.84,39.06,39.06,0,0,1-7.59,8.45c.17.07.17.3-.25.92.28,0,.8-.1,1.33-.14,3.36.13,6,.56,9.47.75a63.07,63.07,0,0,0,13.1-.66,23,23,0,0,0,3,2.11c4-.25,2.64-.91,2.15-1.61s-.17-1.45,5.44-1.85c4-.34,4.41.11,4.27.72s-1.09,1.37.29,1.66l3.93-.93c.71-.16,1.43-.32,2.17-.47l1.12-.21.57-.1.36-.09a10.53,10.53,0,0,1,6.34.31C510.28,142.8,509.12,142.48,507.73,142.64Zm51.11-.73c-1,.3-3,1.22-3.69.36C556.29,140.62,557.16,141.42,558.84,141.91ZM636.59,139c-.74.47-1.88.22-3.16-.33A7.32,7.32,0,0,1,636.59,139Zm216.65-7.88-.11.07C850.93,130.63,851.71,130.86,853.24,131.14Zm4.58.67c.47-.2.44-.4.24-.6-.32.36-1.35.38-2.52.27C855.86,131.86,856.45,132.13,857.82,131.81ZM559.77,59.31l-.89.37C560,58,559.86,58.61,559.77,59.31Z"/><path class="cls-2" d="M627.76,140.92a1.27,1.27,0,0,1-.41-.79C627,140.37,626.94,140.65,627.76,140.92Z"/><path class="cls-2" d="M458.22,142.21l.23-.21a1,1,0,0,0-.42.06Z"/><path class="cls-2" d="M786.61,143.38a4.38,4.38,0,0,1-1.82-.77C784.74,143,785.16,143.27,786.61,143.38Z"/><path class="cls-2" d="M882.16,129.56l-2.94.35a5.8,5.8,0,0,1,2.64.5C881.8,130.07,881.24,129.58,882.16,129.56Z"/><path class="cls-2" d="M907.61,138.72c.43-.18.91,0,1.33-.19l-.11-.68C907,137.89,905.72,138.42,907.61,138.72Z"/><path class="cls-2" d="M884.84,134.4c.23,1.22,2.07.82,4.13.61-.12,0-.24,0-.36,0C889.23,133.31,887,133.85,884.84,134.4Z"/><path class="cls-2" d="M889.45,135a11.09,11.09,0,0,1,1.91,0C891.6,134.28,890.59,134.81,889.45,135Z"/><path class="cls-2" d="M863.65,131.06c1,.32.63-1.56,1.18-1.05C865.93,128.47,858.3,131.82,863.65,131.06Z"/><polygon class="cls-2" points="886.48 138.42 885.75 136.91 884.59 138.11 886.48 138.42"/><path class="cls-2" d="M870.23,137.18l3.28.44c0-.25.37-.39.89-.5C872.37,137.05,870.15,136.73,870.23,137.18Z"/><path class="cls-2" d="M874.4,137.12a7.33,7.33,0,0,0,2.65-.23A16.16,16.16,0,0,0,874.4,137.12Z"/><polygon class="cls-2" points="881.98 138.83 881 138.51 878.68 138.38 881.98 138.83"/><path class="cls-2" d="M834.85,136.56l-3.59.4c-.37.51.6.83,1.94.64C834.07,137.25,835.4,137.06,834.85,136.56Z"/><path class="cls-2" d="M845.68,140.78c-1-.32-1-.66-1.58-1.16l-.12,1.87Z"/><path class="cls-2" d="M835.2,141.12c-.36.51-5.23,1.43-.67,1.36C834.89,142,838.5,141.57,835.2,141.12Z"/><polygon class="cls-2" points="781.11 138.21 782.02 138.2 781.92 135.14 781.11 138.21"/><path class="cls-2" d="M733.33,145c4.25.78,1-1.88,4.87-.92,1-.71-3.14-.78-2.11-1.39C733.52,143.44,732.17,143,733.33,145Z"/><path class="cls-2" d="M736.09,142.71a12.93,12.93,0,0,0,1.32-.45A4.86,4.86,0,0,0,736.09,142.71Z"/><polygon class="cls-2" points="478.14 9.53 475.41 8.88 477.17 9.91 478.14 9.53"/><path class="cls-2" d="M472.88,11.78l-.64-1.95-1.65,1.76C471.21,11.5,472.41,11.34,472.88,11.78Z"/><path class="cls-2" d="M566.42,145.87l.21-.47c-.42-.51-1.06-.55-2.34-.63Z"/><polygon class="cls-2" points="529.33 144.23 529.97 144.27 528.78 142.51 529.33 144.23"/><path class="cls-2" d="M491.57,146.41c2.48.08,5.57-.32,8-.25a20.36,20.36,0,0,1-5.91-.57C492.47,145.33,491.9,145.32,491.57,146.41Z"/><text class="cls-3" transform="translate(605.92 115.6)">SHI<tspan class="cls-4" x="253.58" y="0">R</tspan><tspan class="cls-5" x="346.03" y="0">T</tspan></text></g></svg>